<?xml version="1.0" encoding="utf-8"?>
<!-- Generator: Adobe Illustrator 21.1.0, SVG Export Plug-In . SVG Version: 6.00 Build 0)  -->
<svg version="1.1" id="Layer_1" xmlns="http://www.w3.org/2000/svg" xmlns:xlink="http://www.w3.org/1999/xlink" x="0px" y="0px"
	 viewBox="0 0 512 512" style="enable-background:new 0 0 512 512;" xml:space="preserve">
<style type="text/css">
	.st0{fill:#FFFFFF;}
</style>
<path class="st0" d="M348,327.2v-35.7l-32.4-11.9c-2.8-10.9-6.6-21.2-12.2-30.7l0.3,0l15.4-32.2l-25.2-25.3l-32.1,15.3l0,0
	c-9.5-5.6-19.8-9.2-30.7-12L219.2,162h-35.7l-11.9,32.8c-10.9,2.8-21.2,6.8-30.7,12.4l0-0.2l-32.1-15.4l-25.3,25.2l15.3,32.1l0.1,0
	c-5.6,9.5-11.2,19.8-14,30.7L50,291.5v35.7l34.8,11.9c2.8,10.9,7.8,21.2,13.4,30.7l0.2,0L83.2,402l25.3,25.3l32.2-15.3l0.1,0
	c9.5,5.6,19.8,10.8,30.7,13.7l11.9,34.4h35.7l11.9-34.4c10.9-2.8,21.2-7.6,30.7-13.2l0-0.2l32.2,15.2l25.3-25.3L304,369.9l0-0.1
	c5.6-9.5,8.8-19.8,11.7-30.7L348,327.2z M201.3,368.9c-32.9,0-59.6-26.7-59.6-59.6c0-32.9,26.7-59.6,59.6-59.6
	c32.9,0,59.6,26.7,59.6,59.6C260.9,342.2,234.2,368.9,201.3,368.9z"/>
<path class="st0" d="M462.2,111.2l-7.8-18.9l-20.2,1c-3.9-5.1-8.4-9.6-13.4-13.4l0,0l1.1-20.3L403,51.8l-13.6,15.1l0,0
	c-6.2-0.9-12.6-0.9-19,0l-13.6-15.1l-18.9,7.8l1.1,20.3c-5.2,3.9-9.6,8.4-13.4,13.5l0,0l-20.3-1l-7.8,18.9l15.1,13.6l0,0
	c-0.7,5.8-1,12.7-0.1,19l-15.2,13.7l7.8,18.9l20.4-1.1c3.9,5.1,8.5,9.6,13.5,13.4l0,0l-1,20.3l20.7,7.8l15.4-15.1v0
	c4,0.7,10.8,0.9,17.2,0l12.7,15.1l18.4-7.8l-1.3-20.3c5.1-3.9,9.5-8.4,13.3-13.5l0,0l20.3,1l7.8-18.9l-15.1-13.6l0,0
	c0.9-6.2,0.9-12.6,0-19L462.2,111.2z M392.9,165.7c-17.4,7.2-37.3-1.1-44.5-18.4c-7.2-17.4,1-37.3,18.4-44.5
	c17.4-7.2,37.3,1.1,44.5,18.4C418.5,138.6,410.3,158.5,392.9,165.7z"/>
</svg>
