<?xml version="1.0" encoding="utf-8"?>
<!-- Generator: Adobe Illustrator 21.1.0, SVG Export Plug-In . SVG Version: 6.00 Build 0)  -->
<svg version="1.1" id="Layer_1" xmlns="http://www.w3.org/2000/svg" xmlns:xlink="http://www.w3.org/1999/xlink" x="0px" y="0px"
	 viewBox="0 0 512 512" style="enable-background:new 0 0 512 512;" xml:space="preserve">
<style type="text/css">
	.st0{fill-rule:evenodd;clip-rule:evenodd;fill:url(#SVGID_1_);}
	.st1{opacity:0.6;fill:#333333;}
	.st2{fill-rule:evenodd;clip-rule:evenodd;fill:#FFFFFF;}
	.st3{fill:#FFFFFF;}
</style>
<linearGradient id="SVGID_1_" gradientUnits="userSpaceOnUse" x1="14.6875" y1="497.3125" x2="497.3125" y2="14.6875">
	<stop  offset="0" style="stop-color:#0071BC"/>
	<stop  offset="0.1779" style="stop-color:#1D66A7"/>
	<stop  offset="0.5645" style="stop-color:#674A70"/>
	<stop  offset="1" style="stop-color:#C1272D"/>
</linearGradient>
<path class="st0" d="M462,512H50c-27.5,0-50-22.5-50-50V50C0,22.5,22.5,0,50,0h412c27.5,0,50,22.5,50,50v412
	C512,489.5,489.5,512,462,512z"/>
<path class="st1" d="M462,21c16,0,29,13,29,29v412c0,16-13,29-29,29H50c-16,0-29-13-29-29V50c0-16,13-29,29-29H462 M462,0H50
	C22.5,0,0,22.5,0,50v412c0,27.5,22.5,50,50,50h412c27.5,0,50-22.5,50-50V50C512,22.5,489.5,0,462,0L462,0z"/>
<g>
	<path class="st2" d="M345.2,212.3v-30.2c0-12-9.3-21.1-19.8-21.1h-52.7H150.3h-31.6c-11.9,0-21.1,9.1-21.1,21.1v102.5
		c0,10.5,9.2,19.7,21.1,19.7h206.6c10.5,0,19.8-9.2,19.8-19.7V253V212.3z M417.5,139.9c7.9-6.6,14.5-2.5,14.5,7.9v174.9
		c0,10.5-6.6,14.5-14.5,7.9L370.1,295c-9.2-5.2-15.8-19.7-15.8-30.2v-59.2c0-10.5,6.6-23.6,15.8-31.6L417.5,139.9z M156.9,74.1
		c-21.1,0-39.4,18.5-39.4,39.4c0,22.3,18.4,39.5,39.4,39.5c22.4,0,39.4-17.2,39.4-39.5C196.3,92.6,179.3,74.1,156.9,74.1L156.9,74.1
		z M274,55.8c-26.3,0-48.8,21.1-48.8,48.7c0,26.3,22.4,48.7,48.8,48.7c26.3,0,48.8-22.3,48.8-48.7C322.8,76.9,300.4,55.8,274,55.8
		L274,55.8z"/>
</g>
<g>
	<path class="st3" d="M117.6,432.8H86.7l-5.4,17.5H57.2l34.3-93.5h21.2l34.6,93.5H123L117.6,432.8z M92.1,415.4h20.1L102.1,383
		L92.1,415.4z"/>
	<path class="st3" d="M176.6,433h39.2v17.3h-61.8v-93.5h22.5V433z"/>
	<path class="st3" d="M283.4,410.6h-35.5V433h41.9v17.3h-64.4v-93.5h64.6v17.4h-42v19.7h35.5V410.6z"/>
	<path class="st3" d="M333.7,417.2h-12.2v33.1H299v-93.5h36.8c11.1,0,19.8,2.5,26,7.4c6.3,4.9,9.4,11.9,9.4,20.9
		c0,6.5-1.3,11.9-4,16.2s-6.8,7.7-12.4,10.4l19.5,37.8v1h-24.2L333.7,417.2z M321.5,399.9h14.3c4.3,0,7.5-1.1,9.7-3.4
		c2.2-2.3,3.2-5.4,3.2-9.4c0-4-1.1-7.2-3.3-9.5c-2.2-2.3-5.4-3.4-9.6-3.4h-14.3V399.9z"/>
	<path class="st3" d="M455,374.2h-28.1v76.1h-22.5v-76.1h-27.6v-17.4H455V374.2z"/>
</g>
</svg>
